<svg width="327" height="100" viewBox="0 0 327 100" fill="none" xmlns="http://www.w3.org/2000/svg">
<g clip-path="url(#clip0_608_7858)">
<path fill-rule="evenodd" clip-rule="evenodd" d="M199.638 53.523C199.638 79.2492 178.783 100.104 153.057 100.104C127.33 100.104 106.475 79.2492 106.475 53.523C106.475 27.7968 127.33 6.94165 153.057 6.94165C178.783 6.94165 199.638 27.7968 199.638 53.523ZM280.301 6.98266C306.027 6.98266 326.883 27.8607 326.883 53.6151L305.148 53.6151C305.126 79.2945 284.279 100.105 258.566 100.105C232.841 100.105 211.985 79.2726 211.985 53.5746H233.72C233.742 27.8388 254.589 6.98266 280.301 6.98266ZM46.5814 6.94168C72.3073 6.94168 93.1627 27.7969 93.1627 53.5231V100.104H0V53.5231C0 27.7969 20.8555 6.94168 46.5814 6.94168Z" fill="url(#paint0_linear_608_7858)"/>
<mask id="path-2-inside-1_608_7858" fill="white">
<path fill-rule="evenodd" clip-rule="evenodd" d="M46.5814 0C72.3073 0 93.1627 20.8552 93.1627 46.5814V93.1627H0V46.5814C0 20.8552 20.8555 0 46.5814 0ZM199.638 46.5814C199.638 72.3075 178.783 93.1627 153.057 93.1627C127.33 93.1627 106.475 72.3075 106.475 46.5814C106.475 20.8552 127.33 0 153.057 0C178.783 0 199.638 20.8552 199.638 46.5814ZM280.301 0.0410125C306.027 0.0410125 326.883 20.9191 326.883 46.6734L305.148 46.6734C305.126 72.3528 284.279 93.1633 258.566 93.1633C232.841 93.1633 211.985 72.3309 211.985 46.6329H233.72C233.742 20.8972 254.589 0.0410125 280.301 0.0410125Z"/>
</mask>
<path fill-rule="evenodd" clip-rule="evenodd" d="M46.5814 0C72.3073 0 93.1627 20.8552 93.1627 46.5814V93.1627H0V46.5814C0 20.8552 20.8555 0 46.5814 0ZM199.638 46.5814C199.638 72.3075 178.783 93.1627 153.057 93.1627C127.33 93.1627 106.475 72.3075 106.475 46.5814C106.475 20.8552 127.33 0 153.057 0C178.783 0 199.638 20.8552 199.638 46.5814ZM280.301 0.0410125C306.027 0.0410125 326.883 20.9191 326.883 46.6734L305.148 46.6734C305.126 72.3528 284.279 93.1633 258.566 93.1633C232.841 93.1633 211.985 72.3309 211.985 46.6329H233.72C233.742 20.8972 254.589 0.0410125 280.301 0.0410125Z" fill="url(#paint1_linear_608_7858)"/>
<path d="M93.1627 93.1627V95.9394H95.9394V93.1627H93.1627ZM0 93.1627H-2.77665V95.9394H0V93.1627ZM326.883 46.6734L326.883 49.4501L329.659 49.4501V46.6734H326.883ZM305.148 46.6734L305.148 43.8968L302.374 43.8968L302.371 46.671L305.148 46.6734ZM211.985 46.6329V43.8563H209.208V46.6329H211.985ZM233.72 46.6329V49.4096H236.494L236.497 46.6353L233.72 46.6329ZM95.9394 46.5814C95.9394 19.3217 73.8408 -2.77665 46.5814 -2.77665V2.77665C70.7738 2.77665 90.3861 22.3887 90.3861 46.5814H95.9394ZM95.9394 93.1627V46.5814H90.3861V93.1627H95.9394ZM0 95.9394H93.1627V90.3861H0V95.9394ZM-2.77665 46.5814V93.1627H2.77665V46.5814H-2.77665ZM46.5814 -2.77665C19.322 -2.77665 -2.77665 19.3217 -2.77665 46.5814H2.77665C2.77665 22.3887 22.389 2.77665 46.5814 2.77665V-2.77665ZM153.057 95.9394C180.316 95.9394 202.415 73.841 202.415 46.5814H196.861C196.861 70.774 177.249 90.3861 153.057 90.3861V95.9394ZM103.699 46.5814C103.699 73.841 125.797 95.9394 153.057 95.9394V90.3861C128.864 90.3861 109.252 70.774 109.252 46.5814H103.699ZM153.057 -2.77665C125.797 -2.77665 103.699 19.3217 103.699 46.5814H109.252C109.252 22.3887 128.864 2.77665 153.057 2.77665V-2.77665ZM202.415 46.5814C202.415 19.3217 180.316 -2.77665 153.057 -2.77665V2.77665C177.249 2.77665 196.861 22.3887 196.861 46.5814H202.415ZM329.659 46.6734C329.659 19.3884 307.564 -2.73564 280.301 -2.73564V2.81766C304.491 2.81766 324.106 22.4497 324.106 46.6734H329.659ZM305.148 49.4501L326.883 49.4501L326.883 43.8968L305.148 43.8968L305.148 49.4501ZM258.566 95.9399C285.809 95.9399 307.901 73.8905 307.925 46.6758L302.371 46.671C302.351 70.8151 282.749 90.3866 258.566 90.3866V95.9399ZM209.208 46.6329C209.208 73.8673 231.31 95.9399 258.566 95.9399V90.3866C234.371 90.3866 214.762 70.7946 214.762 46.6329H209.208ZM233.72 43.8563H211.985V49.4096H233.72V43.8563ZM280.301 -2.73564C253.053 -2.73564 230.966 19.3652 230.943 46.6306L236.497 46.6353C236.517 22.4291 256.124 2.81766 280.301 2.81766V-2.73564Z" fill="url(#paint2_linear_608_7858)" mask="url(#path-2-inside-1_608_7858)"/>
</g>
<defs>
<linearGradient id="paint0_linear_608_7858" x1="0.0279821" y1="100.08" x2="85.8263" y2="-97.6648" gradientUnits="userSpaceOnUse">
<stop stop-color="#B50036"/>
<stop offset="1" stop-color="#AF5F00"/>
</linearGradient>
<linearGradient id="paint1_linear_608_7858" x1="0.0279821" y1="93.1379" x2="85.8263" y2="-104.606" gradientUnits="userSpaceOnUse">
<stop stop-color="#FF2E6C"/>
<stop offset="1" stop-color="#FF9416"/>
</linearGradient>
<linearGradient id="paint2_linear_608_7858" x1="0.0279821" y1="93.1379" x2="85.8263" y2="-104.606" gradientUnits="userSpaceOnUse">
<stop stop-color="#FF2E6C"/>
<stop offset="1" stop-color="#FF9416"/>
</linearGradient>
<clipPath id="clip0_608_7858">
<rect width="327" height="100" fill="white"/>
</clipPath>
</defs>
</svg>