<svg width="3000" height="1000" viewBox="0 0 3000 1000" fill="none" xmlns="http://www.w3.org/2000/svg">
<g clip-path="url(#clip0_1_67)">
<path d="M3000 0.199951H0V1000.2H3000V0.199951Z" fill="black"/>
<path d="M1072.4 495.3C1113.38 495.3 1146.6 462.079 1146.6 421.1C1146.6 380.12 1113.38 346.9 1072.4 346.9C1031.42 346.9 998.2 380.12 998.2 421.1C998.2 462.079 1031.42 495.3 1072.4 495.3Z" fill="#8E30EB"/>
<path d="M886.7 542.4C831.7 542.4 787.2 498.5 787.2 444.7C787.2 390.9 831.6 347 886.7 347C931.9 347 959.1 368.4 978.7 400.5C980.5 403.3 979.2 407 976.1 408.3L939.4 422.8C936 424.1 932.2 422.5 930.4 419.7C920.3 403.9 906.6 395.1 886.7 395.1C860.3 395.1 839.4 418.9 839.4 444.7C839.4 470.5 860.3 494.1 886.7 494.1C905.6 494.1 921.8 484 930.6 469.5C932.4 466.7 936 465.1 939.4 466.4L976.1 480.9C979.2 482.2 980.5 485.6 978.7 488.7C959.1 521 931.2 542.4 886.7 542.4Z" fill="white"/>
<path d="M1382.7 532.9C1382.7 536.3 1379.9 539.1 1376.5 539.1H1337.5C1334.1 539.1 1331.3 536.3 1331.3 532.9V449.7C1331.3 446.3 1327.2 445.8 1325.1 448.7L1281.7 518.7C1279.9 521.5 1275.2 521.5 1273.2 518.7L1229.8 448.7C1228 445.9 1223.9 446.4 1223.9 449.7V532.9C1223.9 536.3 1221.1 539.1 1217.7 539.1H1178.7C1175.3 539.1 1172.5 536.3 1172.5 532.9V356.4C1172.5 353 1175.3 350.2 1178.7 350.2H1214.9C1218.3 350.2 1222.7 352.5 1224.5 355.4L1274.1 428.3C1276.2 431.1 1279.3 431.1 1281.1 428.3L1330.7 355.4C1332.8 352.6 1337.2 350.2 1340.5 350.2H1376.7C1380.1 350.2 1382.9 353 1382.9 356.4V532.9H1382.7Z" fill="white"/>
<path d="M1416.3 539.1C1412.7 539.1 1410.1 536.3 1410.1 532.9V356.4C1410.1 353 1412.7 350.2 1416.3 350.2H1455.3C1458.7 350.2 1461.5 353 1461.5 356.4V532.9C1461.5 536.3 1458.7 539.1 1455.3 539.1H1416.3Z" fill="white"/>
<path d="M1666 532.9C1666 536.3 1663.2 539.1 1659.8 539.1H1621.6C1618.2 539.1 1613.8 536.8 1611.8 533.9L1544.4 439.1C1542.3 436.5 1539.5 437 1539.5 440.4V532.9C1539.5 536.3 1536.7 539.1 1533.3 539.1H1494.8C1491.4 539.1 1488.6 536.3 1488.6 532.9V356.1C1488.6 352.7 1491.4 349.9 1494.8 349.9H1533.6C1537 349.9 1541.4 352.2 1543.4 354.8L1610.6 449.6C1612.7 452.4 1615.5 451.9 1615.5 448.6V356.1C1615.5 352.7 1618.3 349.9 1621.7 349.9H1659.9C1663.3 349.9 1666.1 352.7 1666.1 356.1V532.9H1666Z" fill="white"/>
<path d="M1688.2 444.7C1688.2 390.9 1733.2 346.8 1788 346.8C1825.7 346.8 1854.2 363.3 1871.7 390.5C1873.5 393.3 1872.5 397.5 1869.6 399.3L1838.6 419.2C1835.8 421 1831.9 420.2 1829.6 417.6C1819 404.4 1806.1 395.9 1788 395.9C1761.9 395.9 1740.4 418.9 1740.4 444.7C1740.4 470.5 1761.8 493.3 1788 493.3C1801.2 493.3 1815.1 488.6 1822.6 477.8C1824.4 475 1822.6 472.4 1819.2 472.4H1789.5C1786.1 472.4 1783.3 469.6 1783.3 466.2V435.4C1783.3 432 1786.1 429.2 1789.5 429.2H1878.4C1881.8 429.2 1884.9 431.8 1885.1 435.4C1885.6 441.1 1885.9 450.4 1884.8 459.2C1880.1 507 1838 542.4 1787.9 542.4C1733.2 542.4 1688.2 498.5 1688.2 444.7Z" fill="white"/>
<path d="M2049.2 532.9C2049.2 536.3 2046.4 539.1 2043 539.1H1914C1910.4 539.1 1907.8 536.3 1907.8 532.9V356.1C1907.8 352.7 1910.4 349.9 1914 349.9H1952.8C1956.2 349.9 1959 352.7 1959 356.1V485.3C1959 488.7 1961.6 491.5 1965.2 491.5H2043C2046.4 491.5 2049.2 494.3 2049.2 497.7V532.9Z" fill="white"/>
<path d="M2120.6 414.5C2120.6 417.9 2123.4 420.7 2126.8 420.7H2196.8C2200.2 420.7 2203 423.5 2203 426.9V462.6C2203 466 2200.2 468.8 2196.8 468.8H2126.8C2123.4 468.8 2120.6 471.6 2120.6 475V484.8C2120.6 488.2 2123.4 491 2126.8 491H2207.2C2210.6 491 2213.4 493.8 2213.4 497.2V532.9C2213.4 536.3 2210.6 539.1 2207.2 539.1H2075.7C2072.3 539.1 2069.5 536.3 2069.5 532.9V356.1C2069.5 352.7 2072.3 349.9 2075.7 349.9H2207.2C2210.6 349.9 2213.4 352.7 2213.4 356.1V391.2C2213.4 394.6 2210.6 397.4 2207.2 397.4H2126.8C2123.4 397.4 2120.6 400.2 2120.6 403.6V414.5Z" fill="white"/>
<path d="M802.317 593.374C802.485 592.995 802.759 592.679 803.138 592.426C803.559 592.131 804.002 591.984 804.465 591.984H813.311C813.732 591.984 814.133 592.131 814.512 592.426C814.933 592.679 815.228 592.995 815.396 593.374L833.847 636.341C834.016 636.721 833.973 637.121 833.721 637.542C833.51 637.963 833.068 638.174 832.394 638.174H821.589C821.125 638.174 820.683 638.047 820.262 637.795C819.883 637.5 819.588 637.163 819.377 636.784L817.671 632.992C817.46 632.613 817.145 632.297 816.723 632.045C816.344 631.75 815.944 631.602 815.523 631.602H802.19C801.727 631.602 801.284 631.75 800.863 632.045C800.484 632.297 800.21 632.613 800.042 632.992L798.273 636.784C798.104 637.163 797.809 637.5 797.388 637.795C797.009 638.047 796.609 638.174 796.187 638.174H785.319C785.108 638.174 784.898 638.132 784.687 638.047C784.434 637.963 784.245 637.837 784.119 637.668C783.95 637.5 783.845 637.289 783.803 637.036C783.76 636.784 783.824 636.489 783.992 636.152L802.317 593.374ZM806.045 620.86H811.668C812.09 620.86 812.384 620.734 812.553 620.481C812.764 620.186 812.764 619.849 812.553 619.47C812.132 618.417 811.626 617.196 811.036 615.805C810.447 614.373 809.899 613.046 809.394 611.825C809.225 611.446 809.035 611.256 808.825 611.256C808.614 611.256 808.425 611.446 808.256 611.825L805.097 619.47C804.928 619.849 804.928 620.186 805.097 620.481C805.265 620.734 805.581 620.86 806.045 620.86ZM904.551 625.852C903.329 627.832 901.981 629.644 900.507 631.286C899.033 632.887 897.369 634.256 895.515 635.394C893.704 636.531 891.682 637.416 889.449 638.047C887.217 638.679 884.752 638.995 882.056 638.995C878.686 638.995 875.527 638.363 872.578 637.1C869.629 635.836 867.039 634.13 864.806 631.981C862.616 629.833 860.888 627.306 859.625 624.399C858.361 621.492 857.729 618.396 857.729 615.11C857.729 611.825 858.361 608.728 859.625 605.822C860.888 602.915 862.616 600.388 864.806 598.239C867.039 596.091 869.629 594.385 872.578 593.121C875.527 591.857 878.686 591.226 882.056 591.226C884.836 591.226 887.343 591.541 889.576 592.173C891.808 592.805 893.83 593.69 895.642 594.827C897.453 595.965 899.075 597.355 900.507 598.998C901.981 600.598 903.329 602.368 904.551 604.305C904.762 604.642 904.804 605 904.677 605.38C904.551 605.759 904.298 606.032 903.919 606.201L894.946 609.739C894.525 609.908 894.104 609.908 893.683 609.739C893.261 609.571 892.946 609.318 892.735 608.981C891.513 607.043 890.039 605.569 888.312 604.558C886.585 603.505 884.499 602.978 882.056 602.978C880.455 602.978 878.939 603.315 877.507 603.989C876.117 604.663 874.895 605.569 873.842 606.706C872.789 607.802 871.967 609.087 871.378 610.561C870.788 612.035 870.493 613.552 870.493 615.11C870.493 616.711 870.788 618.249 871.378 619.723C871.967 621.155 872.789 622.419 873.842 623.514C874.895 624.61 876.117 625.494 877.507 626.168C878.939 626.842 880.455 627.179 882.056 627.179C884.373 627.179 886.458 626.632 888.312 625.536C890.207 624.399 891.703 622.946 892.798 621.176C893.009 620.839 893.304 620.587 893.683 620.418C894.104 620.25 894.525 620.25 894.946 620.418L903.919 623.957C904.298 624.125 904.551 624.399 904.677 624.778C904.804 625.115 904.762 625.473 904.551 625.852ZM907.282 615.047C907.282 611.761 907.914 608.665 909.178 605.759C910.442 602.852 912.148 600.325 914.296 598.176C916.445 595.986 918.972 594.259 921.879 592.995C924.785 591.731 927.881 591.099 931.167 591.099C934.453 591.099 937.549 591.731 940.456 592.995C943.362 594.259 945.89 595.986 948.038 598.176C950.229 600.325 951.956 602.852 953.22 605.759C954.483 608.665 955.115 611.761 955.115 615.047C955.115 618.333 954.483 621.429 953.22 624.336C951.956 627.242 950.229 629.791 948.038 631.981C945.89 634.13 943.362 635.836 940.456 637.1C937.549 638.363 934.453 638.995 931.167 638.995C927.881 638.995 924.785 638.363 921.879 637.1C918.972 635.836 916.445 634.13 914.296 631.981C912.148 629.791 910.442 627.242 909.178 624.336C907.914 621.429 907.282 618.333 907.282 615.047ZM919.793 615.047C919.793 616.648 920.088 618.164 920.678 619.597C921.268 621.029 922.068 622.293 923.079 623.388C924.132 624.483 925.354 625.368 926.744 626.042C928.134 626.674 929.609 626.99 931.167 626.99C932.726 626.99 934.2 626.674 935.59 626.042C936.98 625.368 938.202 624.483 939.255 623.388C940.308 622.293 941.13 621.029 941.72 619.597C942.309 618.164 942.604 616.648 942.604 615.047C942.604 613.489 942.309 611.993 941.72 610.561C941.13 609.087 940.308 607.823 939.255 606.77C938.202 605.674 936.98 604.811 935.59 604.179C934.2 603.505 932.726 603.168 931.167 603.168C929.609 603.168 928.134 603.505 926.744 604.179C925.354 604.811 924.132 605.674 923.079 606.77C922.068 607.823 921.268 609.087 920.678 610.561C920.088 611.993 919.793 613.489 919.793 615.047ZM1005.1 593.437V636.657C1005.1 637.079 1004.96 637.437 1004.66 637.732C1004.37 638.026 1004.01 638.174 1003.59 638.174H994.236C993.815 638.174 993.373 638.047 992.909 637.795C992.446 637.542 992.088 637.247 991.835 636.91L975.343 613.72C975.09 613.383 974.817 613.257 974.522 613.341C974.269 613.383 974.143 613.615 974.143 614.036V636.657C974.143 637.079 973.995 637.437 973.7 637.732C973.405 638.026 973.047 638.174 972.626 638.174H963.211C962.79 638.174 962.432 638.026 962.137 637.732C961.842 637.437 961.695 637.079 961.695 636.657V593.437C961.695 593.016 961.842 592.658 962.137 592.363C962.432 592.068 962.79 591.921 963.211 591.921H972.689C973.111 591.921 973.553 592.047 974.016 592.3C974.48 592.51 974.838 592.784 975.09 593.121L991.519 616.311C991.772 616.648 992.025 616.795 992.277 616.753C992.572 616.711 992.72 616.479 992.72 616.058V593.437C992.72 593.016 992.867 592.658 993.162 592.363C993.457 592.068 993.815 591.921 994.236 591.921H1003.59C1004.01 591.921 1004.37 592.068 1004.66 592.363C1004.96 592.658 1005.1 593.016 1005.1 593.437ZM1027.09 605.127V607.781C1027.09 608.202 1027.23 608.56 1027.53 608.855C1027.82 609.15 1028.18 609.297 1028.6 609.297H1045.66C1046.09 609.297 1046.44 609.445 1046.74 609.739C1047.03 610.034 1047.18 610.392 1047.18 610.814V619.66C1047.18 620.081 1047.03 620.439 1046.74 620.734C1046.44 621.029 1046.09 621.176 1045.66 621.176H1028.6C1028.18 621.176 1027.82 621.324 1027.53 621.619C1027.23 621.914 1027.09 622.272 1027.09 622.693V636.657C1027.09 637.079 1026.94 637.437 1026.64 637.732C1026.35 638.026 1025.99 638.174 1025.57 638.174H1016.03C1015.61 638.174 1015.25 638.026 1014.95 637.732C1014.66 637.437 1014.51 637.079 1014.51 636.657V593.437C1014.51 593.016 1014.66 592.658 1014.95 592.363C1015.25 592.068 1015.61 591.921 1016.03 591.921H1048.19C1048.61 591.921 1048.97 592.068 1049.27 592.363C1049.56 592.658 1049.71 593.016 1049.71 593.437V602.094C1049.71 602.515 1049.56 602.873 1049.27 603.168C1048.97 603.463 1048.61 603.61 1048.19 603.61H1028.6C1028.18 603.61 1027.82 603.758 1027.53 604.053C1027.23 604.347 1027.09 604.706 1027.09 605.127ZM1068.24 605.064V607.717C1068.24 608.139 1068.39 608.497 1068.69 608.792C1068.98 609.087 1069.34 609.234 1069.76 609.234H1086.88C1087.31 609.234 1087.66 609.381 1087.96 609.676C1088.25 609.971 1088.4 610.329 1088.4 610.75V619.47C1088.4 619.892 1088.25 620.25 1087.96 620.545C1087.66 620.839 1087.31 620.987 1086.88 620.987H1069.76C1069.34 620.987 1068.98 621.134 1068.69 621.429C1068.39 621.724 1068.24 622.082 1068.24 622.503V624.904C1068.24 625.326 1068.39 625.684 1068.69 625.979C1068.98 626.274 1069.34 626.421 1069.76 626.421H1089.41C1089.83 626.421 1090.19 626.568 1090.49 626.863C1090.78 627.158 1090.93 627.516 1090.93 627.937V636.657C1090.93 637.079 1090.78 637.437 1090.49 637.732C1090.19 638.026 1089.83 638.174 1089.41 638.174H1057.25C1056.83 638.174 1056.47 638.026 1056.17 637.732C1055.88 637.437 1055.73 637.079 1055.73 636.657V593.437C1055.73 593.016 1055.88 592.658 1056.17 592.363C1056.47 592.068 1056.83 591.921 1057.25 591.921H1089.41C1089.83 591.921 1090.19 592.068 1090.49 592.363C1090.78 592.658 1090.93 593.016 1090.93 593.437V602.031C1090.93 602.452 1090.78 602.81 1090.49 603.105C1090.19 603.4 1089.83 603.547 1089.41 603.547H1069.76C1069.34 603.547 1068.98 603.695 1068.69 603.989C1068.39 604.284 1068.24 604.642 1068.24 605.064ZM1109.92 638.174H1100.51C1100.09 638.174 1099.73 638.026 1099.43 637.732C1099.14 637.437 1098.99 637.079 1098.99 636.657V593.437C1098.99 593.016 1099.14 592.658 1099.43 592.363C1099.73 592.068 1100.09 591.921 1100.51 591.921H1120.16C1122.6 591.921 1124.86 592.342 1126.92 593.184C1128.98 593.985 1130.73 595.122 1132.17 596.596C1133.64 598.071 1134.78 599.819 1135.58 601.841C1136.42 603.863 1136.84 606.096 1136.84 608.539C1136.84 609.887 1136.67 611.235 1136.34 612.583C1136.04 613.889 1135.6 615.131 1135.01 616.311C1134.42 617.49 1133.72 618.565 1132.92 619.534C1132.12 620.46 1131.22 621.24 1130.21 621.871C1129.87 622.124 1129.64 622.44 1129.51 622.819C1129.43 623.156 1129.51 623.493 1129.76 623.83C1131.36 625.937 1133.05 628.106 1134.82 630.339C1136.59 632.571 1138.17 634.614 1139.56 636.468C1139.81 636.805 1139.87 637.184 1139.75 637.605C1139.62 637.984 1139.35 638.174 1138.93 638.174H1127.17C1126.75 638.174 1126.29 638.069 1125.78 637.858C1125.32 637.605 1124.96 637.31 1124.71 636.973C1123.36 635.204 1122.01 633.414 1120.67 631.602C1119.36 629.791 1118.05 627.959 1116.75 626.105C1116.49 625.768 1116.14 625.494 1115.67 625.284C1115.21 625.031 1114.77 624.904 1114.35 624.904H1112.96C1112.53 624.904 1112.18 625.052 1111.88 625.347C1111.59 625.642 1111.44 626 1111.44 626.421V636.657C1111.44 637.079 1111.29 637.437 1111 637.732C1110.7 638.026 1110.34 638.174 1109.92 638.174ZM1112.96 613.278H1119.65C1120.16 613.278 1120.69 613.194 1121.23 613.025C1121.78 612.815 1122.29 612.52 1122.75 612.141C1123.21 611.719 1123.59 611.214 1123.89 610.624C1124.18 610.034 1124.33 609.339 1124.33 608.539C1124.33 608.118 1124.25 607.633 1124.08 607.086C1123.95 606.496 1123.7 605.948 1123.32 605.443C1122.98 604.895 1122.5 604.453 1121.87 604.116C1121.28 603.737 1120.54 603.547 1119.65 603.547H1112.96C1112.53 603.547 1112.18 603.695 1111.88 603.989C1111.59 604.284 1111.44 604.642 1111.44 605.064V611.761C1111.44 612.183 1111.59 612.541 1111.88 612.836C1112.18 613.131 1112.53 613.278 1112.96 613.278ZM1156.85 605.064V607.717C1156.85 608.139 1157 608.497 1157.3 608.792C1157.59 609.087 1157.95 609.234 1158.37 609.234H1175.49C1175.92 609.234 1176.27 609.381 1176.57 609.676C1176.86 609.971 1177.01 610.329 1177.01 610.75V619.47C1177.01 619.892 1176.86 620.25 1176.57 620.545C1176.27 620.839 1175.92 620.987 1175.49 620.987H1158.37C1157.95 620.987 1157.59 621.134 1157.3 621.429C1157 621.724 1156.85 622.082 1156.85 622.503V624.904C1156.85 625.326 1157 625.684 1157.3 625.979C1157.59 626.274 1157.95 626.421 1158.37 626.421H1178.02C1178.44 626.421 1178.8 626.568 1179.1 626.863C1179.39 627.158 1179.54 627.516 1179.54 627.937V636.657C1179.54 637.079 1179.39 637.437 1179.1 637.732C1178.8 638.026 1178.44 638.174 1178.02 638.174H1145.86C1145.44 638.174 1145.08 638.026 1144.79 637.732C1144.49 637.437 1144.34 637.079 1144.34 636.657V593.437C1144.34 593.016 1144.49 592.658 1144.79 592.363C1145.08 592.068 1145.44 591.921 1145.86 591.921H1178.02C1178.44 591.921 1178.8 592.068 1179.1 592.363C1179.39 592.658 1179.54 593.016 1179.54 593.437V602.031C1179.54 602.452 1179.39 602.81 1179.1 603.105C1178.8 603.4 1178.44 603.547 1178.02 603.547H1158.37C1157.95 603.547 1157.59 603.695 1157.3 603.989C1157 604.284 1156.85 604.642 1156.85 605.064ZM1231.01 593.437V636.657C1231.01 637.079 1230.86 637.437 1230.57 637.732C1230.27 638.026 1229.92 638.174 1229.5 638.174H1220.14C1219.72 638.174 1219.28 638.047 1218.82 637.795C1218.35 637.542 1218 637.247 1217.74 636.91L1201.25 613.72C1201 613.383 1200.72 613.257 1200.43 613.341C1200.18 613.383 1200.05 613.615 1200.05 614.036V636.657C1200.05 637.079 1199.9 637.437 1199.61 637.732C1199.31 638.026 1198.96 638.174 1198.53 638.174H1189.12C1188.7 638.174 1188.34 638.026 1188.04 637.732C1187.75 637.437 1187.6 637.079 1187.6 636.657V593.437C1187.6 593.016 1187.75 592.658 1188.04 592.363C1188.34 592.068 1188.7 591.921 1189.12 591.921H1198.6C1199.02 591.921 1199.46 592.047 1199.92 592.3C1200.39 592.51 1200.75 592.784 1201 593.121L1217.43 616.311C1217.68 616.648 1217.93 616.795 1218.19 616.753C1218.48 616.711 1218.63 616.479 1218.63 616.058V593.437C1218.63 593.016 1218.77 592.658 1219.07 592.363C1219.36 592.068 1219.72 591.921 1220.14 591.921H1229.5C1229.92 591.921 1230.27 592.068 1230.57 592.363C1230.86 592.658 1231.01 593.016 1231.01 593.437ZM1285.16 625.852C1283.94 627.832 1282.59 629.644 1281.11 631.286C1279.64 632.887 1277.97 634.256 1276.12 635.394C1274.31 636.531 1272.29 637.416 1270.06 638.047C1267.82 638.679 1265.36 638.995 1262.66 638.995C1259.29 638.995 1256.13 638.363 1253.18 637.1C1250.24 635.836 1247.64 634.13 1245.41 631.981C1243.22 629.833 1241.49 627.306 1240.23 624.399C1238.97 621.492 1238.33 618.396 1238.33 615.11C1238.33 611.825 1238.97 608.728 1240.23 605.822C1241.49 602.915 1243.22 600.388 1245.41 598.239C1247.64 596.091 1250.24 594.385 1253.18 593.121C1256.13 591.857 1259.29 591.226 1262.66 591.226C1265.44 591.226 1267.95 591.541 1270.18 592.173C1272.41 592.805 1274.44 593.69 1276.25 594.827C1278.06 595.965 1279.68 597.355 1281.11 598.998C1282.59 600.598 1283.94 602.368 1285.16 604.305C1285.37 604.642 1285.41 605 1285.28 605.38C1285.16 605.759 1284.9 606.032 1284.53 606.201L1275.55 609.739C1275.13 609.908 1274.71 609.908 1274.29 609.739C1273.87 609.571 1273.55 609.318 1273.34 608.981C1272.12 607.043 1270.64 605.569 1268.92 604.558C1267.19 603.505 1265.11 602.978 1262.66 602.978C1261.06 602.978 1259.54 603.315 1258.11 603.989C1256.72 604.663 1255.5 605.569 1254.45 606.706C1253.39 607.802 1252.57 609.087 1251.98 610.561C1251.39 612.035 1251.1 613.552 1251.1 615.11C1251.1 616.711 1251.39 618.249 1251.98 619.723C1252.57 621.155 1253.39 622.419 1254.45 623.514C1255.5 624.61 1256.72 625.494 1258.11 626.168C1259.54 626.842 1261.06 627.179 1262.66 627.179C1264.98 627.179 1267.06 626.632 1268.92 625.536C1270.81 624.399 1272.31 622.946 1273.4 621.176C1273.61 620.839 1273.91 620.587 1274.29 620.418C1274.71 620.25 1275.13 620.25 1275.55 620.418L1284.53 623.957C1284.9 624.125 1285.16 624.399 1285.28 624.778C1285.41 625.115 1285.37 625.473 1285.16 625.852ZM1302.36 605.064V607.717C1302.36 608.139 1302.51 608.497 1302.8 608.792C1303.1 609.087 1303.45 609.234 1303.87 609.234H1321C1321.42 609.234 1321.78 609.381 1322.07 609.676C1322.37 609.971 1322.52 610.329 1322.52 610.75V619.47C1322.52 619.892 1322.37 620.25 1322.07 620.545C1321.78 620.839 1321.42 620.987 1321 620.987H1303.87C1303.45 620.987 1303.1 621.134 1302.8 621.429C1302.51 621.724 1302.36 622.082 1302.36 622.503V624.904C1302.36 625.326 1302.51 625.684 1302.8 625.979C1303.1 626.274 1303.45 626.421 1303.87 626.421H1323.53C1323.95 626.421 1324.31 626.568 1324.6 626.863C1324.9 627.158 1325.04 627.516 1325.04 627.937V636.657C1325.04 637.079 1324.9 637.437 1324.6 637.732C1324.31 638.026 1323.95 638.174 1323.53 638.174H1291.36C1290.94 638.174 1290.58 638.026 1290.29 637.732C1289.99 637.437 1289.85 637.079 1289.85 636.657V593.437C1289.85 593.016 1289.99 592.658 1290.29 592.363C1290.58 592.068 1290.94 591.921 1291.36 591.921H1323.53C1323.95 591.921 1324.31 592.068 1324.6 592.363C1324.9 592.658 1325.04 593.016 1325.04 593.437V602.031C1325.04 602.452 1324.9 602.81 1324.6 603.105C1324.31 603.4 1323.95 603.547 1323.53 603.547H1303.87C1303.45 603.547 1303.1 603.695 1302.8 603.989C1302.51 604.284 1302.36 604.642 1302.36 605.064ZM1368.29 593.374C1368.46 592.995 1368.73 592.679 1369.11 592.426C1369.53 592.131 1369.97 591.984 1370.44 591.984H1379.28C1379.7 591.984 1380.11 592.131 1380.48 592.426C1380.91 592.679 1381.2 592.995 1381.37 593.374L1399.82 636.341C1399.99 636.721 1399.95 637.121 1399.69 637.542C1399.48 637.963 1399.04 638.174 1398.37 638.174H1387.56C1387.1 638.174 1386.66 638.047 1386.23 637.795C1385.86 637.5 1385.56 637.163 1385.35 636.784L1383.64 632.992C1383.43 632.613 1383.12 632.297 1382.7 632.045C1382.32 631.75 1381.92 631.602 1381.5 631.602H1368.16C1367.7 631.602 1367.26 631.75 1366.84 632.045C1366.46 632.297 1366.18 632.613 1366.01 632.992L1364.24 636.784C1364.08 637.163 1363.78 637.5 1363.36 637.795C1362.98 638.047 1362.58 638.174 1362.16 638.174H1351.29C1351.08 638.174 1350.87 638.132 1350.66 638.047C1350.41 637.963 1350.22 637.837 1350.09 637.668C1349.92 637.5 1349.82 637.289 1349.78 637.036C1349.73 636.784 1349.8 636.489 1349.96 636.152L1368.29 593.374ZM1372.02 620.86H1377.64C1378.06 620.86 1378.36 620.734 1378.53 620.481C1378.74 620.186 1378.74 619.849 1378.53 619.47C1378.1 618.417 1377.6 617.196 1377.01 615.805C1376.42 614.373 1375.87 613.046 1375.37 611.825C1375.2 611.446 1375.01 611.256 1374.8 611.256C1374.59 611.256 1374.4 611.446 1374.23 611.825L1371.07 619.47C1370.9 619.849 1370.9 620.186 1371.07 620.481C1371.24 620.734 1371.55 620.86 1372.02 620.86ZM1423.78 625.726H1418.28C1417.86 625.726 1417.5 625.873 1417.21 626.168C1416.91 626.463 1416.76 626.821 1416.76 627.242V636.657C1416.76 637.079 1416.62 637.437 1416.32 637.732C1416.03 638.026 1415.67 638.174 1415.25 638.174H1405.71C1405.28 638.174 1404.93 638.026 1404.63 637.732C1404.34 637.437 1404.19 637.079 1404.19 636.657V593.437C1404.19 593.016 1404.34 592.658 1404.63 592.363C1404.93 592.068 1405.28 591.921 1405.71 591.921H1425.04C1427.4 591.921 1429.61 592.363 1431.68 593.248C1433.78 594.132 1435.59 595.354 1437.11 596.912C1438.67 598.471 1439.89 600.282 1440.77 602.347C1441.7 604.411 1442.17 606.622 1442.17 608.981C1442.17 611.34 1441.79 613.552 1441.03 615.616C1440.27 617.638 1439.11 619.407 1437.55 620.924C1436.04 622.398 1434.12 623.578 1431.8 624.462C1429.53 625.305 1426.85 625.726 1423.78 625.726ZM1424.22 603.547H1418.28C1417.86 603.547 1417.5 603.695 1417.21 603.989C1416.91 604.284 1416.76 604.642 1416.76 605.064V612.52C1416.76 612.941 1416.91 613.299 1417.21 613.594C1417.5 613.889 1417.86 614.036 1418.28 614.036H1425.04C1426.64 614.036 1427.8 613.531 1428.52 612.52C1429.27 611.467 1429.65 610.287 1429.65 608.981C1429.65 608.307 1429.53 607.654 1429.27 607.022C1429.06 606.348 1428.73 605.759 1428.26 605.253C1427.8 604.748 1427.23 604.347 1426.56 604.053C1425.88 603.716 1425.1 603.547 1424.22 603.547ZM1466.6 625.726H1461.1C1460.68 625.726 1460.33 625.873 1460.03 626.168C1459.74 626.463 1459.59 626.821 1459.59 627.242V636.657C1459.59 637.079 1459.44 637.437 1459.15 637.732C1458.85 638.026 1458.49 638.174 1458.07 638.174H1448.53C1448.11 638.174 1447.75 638.026 1447.46 637.732C1447.16 637.437 1447.01 637.079 1447.01 636.657V593.437C1447.01 593.016 1447.16 592.658 1447.46 592.363C1447.75 592.068 1448.11 591.921 1448.53 591.921H1467.87C1470.22 591.921 1472.44 592.363 1474.5 593.248C1476.61 594.132 1478.42 595.354 1479.93 596.912C1481.49 598.471 1482.71 600.282 1483.6 602.347C1484.53 604.411 1484.99 606.622 1484.99 608.981C1484.99 611.34 1484.61 613.552 1483.85 615.616C1483.09 617.638 1481.94 619.407 1480.38 620.924C1478.86 622.398 1476.94 623.578 1474.63 624.462C1472.35 625.305 1469.68 625.726 1466.6 625.726ZM1467.04 603.547H1461.1C1460.68 603.547 1460.33 603.695 1460.03 603.989C1459.74 604.284 1459.59 604.642 1459.59 605.064V612.52C1459.59 612.941 1459.74 613.299 1460.03 613.594C1460.33 613.889 1460.68 614.036 1461.1 614.036H1467.87C1469.47 614.036 1470.62 613.531 1471.34 612.52C1472.1 611.467 1472.48 610.287 1472.48 608.981C1472.48 608.307 1472.35 607.654 1472.1 607.022C1471.89 606.348 1471.55 605.759 1471.09 605.253C1470.62 604.748 1470.06 604.347 1469.38 604.053C1468.71 603.716 1467.93 603.547 1467.04 603.547Z" fill="#FF9900"/>
<path d="M1531.02 625.726H1525.53C1525.1 625.726 1524.75 625.873 1524.45 626.168C1524.16 626.463 1524.01 626.821 1524.01 627.242V636.657C1524.01 637.079 1523.86 637.437 1523.57 637.732C1523.27 638.026 1522.91 638.174 1522.49 638.174H1512.95C1512.53 638.174 1512.17 638.026 1511.88 637.732C1511.58 637.437 1511.44 637.079 1511.44 636.657V593.437C1511.44 593.016 1511.58 592.658 1511.88 592.363C1512.17 592.068 1512.53 591.921 1512.95 591.921H1532.29C1534.65 591.921 1536.86 592.363 1538.92 593.248C1541.03 594.132 1542.84 595.354 1544.36 596.912C1545.91 598.471 1547.14 600.282 1548.02 602.347C1548.95 604.411 1549.41 606.622 1549.41 608.981C1549.41 611.34 1549.03 613.552 1548.27 615.616C1547.52 617.638 1546.36 619.407 1544.8 620.924C1543.28 622.398 1541.37 623.578 1539.05 624.462C1536.77 625.305 1534.1 625.726 1531.02 625.726ZM1531.47 603.547H1525.53C1525.1 603.547 1524.75 603.695 1524.45 603.989C1524.16 604.284 1524.01 604.642 1524.01 605.064V612.52C1524.01 612.941 1524.16 613.299 1524.45 613.594C1524.75 613.889 1525.1 614.036 1525.53 614.036H1532.29C1533.89 614.036 1535.05 613.531 1535.76 612.52C1536.52 611.467 1536.9 610.287 1536.9 608.981C1536.9 608.307 1536.77 607.654 1536.52 607.022C1536.31 606.348 1535.97 605.759 1535.51 605.253C1535.05 604.748 1534.48 604.347 1533.8 604.053C1533.13 603.716 1532.35 603.547 1531.47 603.547ZM1552.3 615.047C1552.3 611.761 1552.93 608.665 1554.2 605.759C1555.46 602.852 1557.17 600.325 1559.31 598.176C1561.46 595.986 1563.99 594.259 1566.9 592.995C1569.8 591.731 1572.9 591.099 1576.19 591.099C1579.47 591.099 1582.57 591.731 1585.47 592.995C1588.38 594.259 1590.91 595.986 1593.06 598.176C1595.25 600.325 1596.97 602.852 1598.24 605.759C1599.5 608.665 1600.13 611.761 1600.13 615.047C1600.13 618.333 1599.5 621.429 1598.24 624.336C1596.97 627.242 1595.25 629.791 1593.06 631.981C1590.91 634.13 1588.38 635.836 1585.47 637.1C1582.57 638.363 1579.47 638.995 1576.19 638.995C1572.9 638.995 1569.8 638.363 1566.9 637.1C1563.99 635.836 1561.46 634.13 1559.31 631.981C1557.17 629.791 1555.46 627.242 1554.2 624.336C1552.93 621.429 1552.3 618.333 1552.3 615.047ZM1564.81 615.047C1564.81 616.648 1565.11 618.164 1565.7 619.597C1566.29 621.029 1567.09 622.293 1568.1 623.388C1569.15 624.483 1570.37 625.368 1571.76 626.042C1573.15 626.674 1574.63 626.99 1576.19 626.99C1577.74 626.99 1579.22 626.674 1580.61 626.042C1582 625.368 1583.22 624.483 1584.27 623.388C1585.33 622.293 1586.15 621.029 1586.74 619.597C1587.33 618.164 1587.62 616.648 1587.62 615.047C1587.62 613.489 1587.33 611.993 1586.74 610.561C1586.15 609.087 1585.33 607.823 1584.27 606.77C1583.22 605.674 1582 604.811 1580.61 604.179C1579.22 603.505 1577.74 603.168 1576.19 603.168C1574.63 603.168 1573.15 603.505 1571.76 604.179C1570.37 604.811 1569.15 605.674 1568.1 606.77C1567.09 607.823 1566.29 609.087 1565.7 610.561C1565.11 611.993 1564.81 613.489 1564.81 615.047ZM1601.26 593.753C1601.05 593.248 1601.03 592.826 1601.2 592.489C1601.41 592.11 1601.75 591.921 1602.21 591.921H1612.51C1612.93 591.921 1613.33 592.068 1613.71 592.363C1614.09 592.616 1614.34 592.932 1614.47 593.311L1621.67 614.352C1621.8 614.773 1622.01 614.984 1622.31 614.984C1622.64 614.984 1622.87 614.773 1623 614.352L1629.95 593.374C1630.08 592.953 1630.33 592.616 1630.71 592.363C1631.09 592.068 1631.51 591.921 1631.97 591.921H1640.38C1640.84 591.921 1641.26 592.068 1641.64 592.363C1642.02 592.616 1642.27 592.953 1642.4 593.374L1649.35 614.479C1649.48 614.9 1649.69 615.11 1649.98 615.11C1650.32 615.11 1650.57 614.9 1650.74 614.479L1658.01 593.311C1658.18 592.932 1658.45 592.616 1658.83 592.363C1659.21 592.068 1659.63 591.921 1660.09 591.921H1670.33C1670.79 591.921 1671.11 592.11 1671.28 592.489C1671.44 592.826 1671.47 593.184 1671.34 593.563L1656.05 636.721C1655.88 637.142 1655.61 637.5 1655.23 637.795C1654.85 638.047 1654.43 638.174 1653.96 638.174H1645.81C1645.35 638.174 1644.93 638.047 1644.55 637.795C1644.17 637.5 1643.92 637.142 1643.79 636.721L1636.84 615.679C1636.71 615.258 1636.48 615.047 1636.14 615.047C1635.85 615.047 1635.64 615.258 1635.51 615.679L1628.56 636.721C1628.44 637.142 1628.18 637.5 1627.8 637.795C1627.42 638.047 1627 638.174 1626.54 638.174H1618.39C1617.93 638.174 1617.5 638.026 1617.12 637.732C1616.75 637.395 1616.51 637.058 1616.43 636.721L1601.26 593.753ZM1689.2 605.064V607.717C1689.2 608.139 1689.34 608.497 1689.64 608.792C1689.93 609.087 1690.29 609.234 1690.71 609.234H1707.84C1708.26 609.234 1708.62 609.381 1708.91 609.676C1709.21 609.971 1709.35 610.329 1709.35 610.75V619.47C1709.35 619.892 1709.21 620.25 1708.91 620.545C1708.62 620.839 1708.26 620.987 1707.84 620.987H1690.71C1690.29 620.987 1689.93 621.134 1689.64 621.429C1689.34 621.724 1689.2 622.082 1689.2 622.503V624.904C1689.2 625.326 1689.34 625.684 1689.64 625.979C1689.93 626.274 1690.29 626.421 1690.71 626.421H1710.36C1710.79 626.421 1711.14 626.568 1711.44 626.863C1711.73 627.158 1711.88 627.516 1711.88 627.937V636.657C1711.88 637.079 1711.73 637.437 1711.44 637.732C1711.14 638.026 1710.79 638.174 1710.36 638.174H1678.2C1677.78 638.174 1677.42 638.026 1677.13 637.732C1676.83 637.437 1676.69 637.079 1676.69 636.657V593.437C1676.69 593.016 1676.83 592.658 1677.13 592.363C1677.42 592.068 1677.78 591.921 1678.2 591.921H1710.36C1710.79 591.921 1711.14 592.068 1711.44 592.363C1711.73 592.658 1711.88 593.016 1711.88 593.437V602.031C1711.88 602.452 1711.73 602.81 1711.44 603.105C1711.14 603.4 1710.79 603.547 1710.36 603.547H1690.71C1690.29 603.547 1689.93 603.695 1689.64 603.989C1689.34 604.284 1689.2 604.642 1689.2 605.064ZM1730.88 638.174H1721.46C1721.04 638.174 1720.68 638.026 1720.39 637.732C1720.09 637.437 1719.94 637.079 1719.94 636.657V593.437C1719.94 593.016 1720.09 592.658 1720.39 592.363C1720.68 592.068 1721.04 591.921 1721.46 591.921H1741.11C1743.56 591.921 1745.81 592.342 1747.87 593.184C1749.94 593.985 1751.69 595.122 1753.12 596.596C1754.59 598.071 1755.73 599.819 1756.53 601.841C1757.37 603.863 1757.79 606.096 1757.79 608.539C1757.79 609.887 1757.63 611.235 1757.29 612.583C1756.99 613.889 1756.55 615.131 1755.96 616.311C1755.37 617.49 1754.68 618.565 1753.88 619.534C1753.08 620.46 1752.17 621.24 1751.16 621.871C1750.82 622.124 1750.59 622.44 1750.46 622.819C1750.38 623.156 1750.46 623.493 1750.72 623.83C1752.32 625.937 1754 628.106 1755.77 630.339C1757.54 632.571 1759.12 634.614 1760.51 636.468C1760.76 636.805 1760.83 637.184 1760.7 637.605C1760.57 637.984 1760.3 638.174 1759.88 638.174H1748.13C1747.71 638.174 1747.24 638.069 1746.74 637.858C1746.27 637.605 1745.91 637.31 1745.66 636.973C1744.31 635.204 1742.97 633.414 1741.62 631.602C1740.31 629.791 1739.01 627.959 1737.7 626.105C1737.45 625.768 1737.09 625.494 1736.63 625.284C1736.16 625.031 1735.72 624.904 1735.3 624.904H1733.91C1733.49 624.904 1733.13 625.052 1732.83 625.347C1732.54 625.642 1732.39 626 1732.39 626.421V636.657C1732.39 637.079 1732.25 637.437 1731.95 637.732C1731.66 638.026 1731.3 638.174 1730.88 638.174ZM1733.91 613.278H1740.61C1741.11 613.278 1741.64 613.194 1742.19 613.025C1742.73 612.815 1743.24 612.52 1743.7 612.141C1744.17 611.719 1744.55 611.214 1744.84 610.624C1745.14 610.034 1745.28 609.339 1745.28 608.539C1745.28 608.118 1745.2 607.633 1745.03 607.086C1744.9 606.496 1744.65 605.948 1744.27 605.443C1743.93 604.895 1743.45 604.453 1742.82 604.116C1742.23 603.737 1741.49 603.547 1740.61 603.547H1733.91C1733.49 603.547 1733.13 603.695 1732.83 603.989C1732.54 604.284 1732.39 604.642 1732.39 605.064V611.761C1732.39 612.183 1732.54 612.541 1732.83 612.836C1733.13 613.131 1733.49 613.278 1733.91 613.278ZM1777.81 605.064V607.717C1777.81 608.139 1777.95 608.497 1778.25 608.792C1778.54 609.087 1778.9 609.234 1779.32 609.234H1796.45C1796.87 609.234 1797.23 609.381 1797.52 609.676C1797.82 609.971 1797.96 610.329 1797.96 610.75V619.47C1797.96 619.892 1797.82 620.25 1797.52 620.545C1797.23 620.839 1796.87 620.987 1796.45 620.987H1779.32C1778.9 620.987 1778.54 621.134 1778.25 621.429C1777.95 621.724 1777.81 622.082 1777.81 622.503V624.904C1777.81 625.326 1777.95 625.684 1778.25 625.979C1778.54 626.274 1778.9 626.421 1779.32 626.421H1798.97C1799.4 626.421 1799.75 626.568 1800.05 626.863C1800.34 627.158 1800.49 627.516 1800.49 627.937V636.657C1800.49 637.079 1800.34 637.437 1800.05 637.732C1799.75 638.026 1799.4 638.174 1798.97 638.174H1766.81C1766.39 638.174 1766.03 638.026 1765.74 637.732C1765.44 637.437 1765.3 637.079 1765.3 636.657V593.437C1765.3 593.016 1765.44 592.658 1765.74 592.363C1766.03 592.068 1766.39 591.921 1766.81 591.921H1798.97C1799.4 591.921 1799.75 592.068 1800.05 592.363C1800.34 592.658 1800.49 593.016 1800.49 593.437V602.031C1800.49 602.452 1800.34 602.81 1800.05 603.105C1799.75 603.4 1799.4 603.547 1798.97 603.547H1779.32C1778.9 603.547 1778.54 603.695 1778.25 603.989C1777.95 604.284 1777.81 604.642 1777.81 605.064ZM1808.62 636.657V593.437C1808.62 593.016 1808.77 592.658 1809.06 592.363C1809.36 592.068 1809.71 591.921 1810.13 591.921H1827.39C1834 591.921 1839.41 593.858 1843.62 597.734C1845.9 599.84 1847.63 602.347 1848.81 605.253C1849.99 608.16 1850.57 611.424 1850.57 615.047C1850.57 618.67 1849.99 621.956 1848.81 624.904C1847.63 627.811 1845.9 630.318 1843.62 632.424C1841.52 634.319 1839.1 635.752 1836.36 636.721C1833.66 637.689 1830.67 638.174 1827.39 638.174H1810.13C1809.71 638.174 1809.36 638.026 1809.06 637.732C1808.77 637.437 1808.62 637.079 1808.62 636.657ZM1822.65 626.547H1827.39C1828.56 626.547 1829.79 626.4 1831.05 626.105C1832.31 625.81 1833.45 625.263 1834.46 624.462C1835.47 623.62 1836.29 622.461 1836.93 620.987C1837.6 619.47 1837.94 617.512 1837.94 615.11C1837.94 612.709 1837.6 610.772 1836.93 609.297C1836.29 607.781 1835.45 606.622 1834.4 605.822C1833.39 604.979 1832.25 604.411 1830.99 604.116C1829.77 603.821 1828.56 603.673 1827.39 603.673H1822.65C1822.22 603.673 1821.87 603.821 1821.57 604.116C1821.28 604.411 1821.13 604.769 1821.13 605.19V625.031C1821.13 625.452 1821.28 625.81 1821.57 626.105C1821.87 626.4 1822.22 626.547 1822.65 626.547ZM1911.42 614.352C1912.09 614.731 1912.77 615.195 1913.44 615.742C1914.12 616.29 1914.73 616.964 1915.27 617.764C1915.86 618.565 1916.33 619.491 1916.66 620.545C1917.04 621.598 1917.23 622.798 1917.23 624.146C1917.23 626.884 1916.79 629.159 1915.91 630.97C1915.06 632.74 1913.91 634.172 1912.43 635.267C1910.96 636.32 1909.25 637.079 1907.31 637.542C1905.42 637.963 1903.42 638.174 1901.31 638.174H1881.28C1880.86 638.174 1880.5 638.026 1880.21 637.732C1879.91 637.437 1879.76 637.079 1879.76 636.657V593.437C1879.76 593.016 1879.91 592.658 1880.21 592.363C1880.5 592.068 1880.86 591.921 1881.28 591.921H1900.36C1902.38 591.921 1904.32 592.152 1906.18 592.616C1908.03 593.037 1909.65 593.753 1911.04 594.764C1912.47 595.775 1913.61 597.102 1914.45 598.745C1915.34 600.346 1915.78 602.325 1915.78 604.684C1915.78 606.58 1915.3 608.223 1914.33 609.613C1913.4 611.003 1912.39 612.098 1911.29 612.899C1910.54 613.446 1910.58 613.931 1911.42 614.352ZM1893.79 609.487H1899.67C1900.51 609.487 1901.18 609.171 1901.69 608.539C1902.19 607.865 1902.45 607.128 1902.45 606.327C1902.45 605.569 1902.13 604.916 1901.5 604.369C1900.91 603.821 1900.34 603.547 1899.79 603.547H1893.79C1893.37 603.547 1893.01 603.695 1892.72 603.989C1892.42 604.284 1892.27 604.642 1892.27 605.064V607.97C1892.27 608.391 1892.42 608.75 1892.72 609.044C1893.01 609.339 1893.37 609.487 1893.79 609.487ZM1900.43 619.913H1893.79C1893.37 619.913 1893.01 620.06 1892.72 620.355C1892.42 620.65 1892.27 621.008 1892.27 621.429V625.031C1892.27 625.452 1892.42 625.81 1892.72 626.105C1893.01 626.4 1893.37 626.547 1893.79 626.547H1900.87C1901.63 626.547 1902.34 626.231 1903.02 625.6C1903.69 624.968 1904.03 624.23 1904.03 623.388C1904.03 622.63 1903.69 621.871 1903.02 621.113C1902.38 620.313 1901.52 619.913 1900.43 619.913ZM1961.43 593.753L1945.64 619.344C1945.42 619.723 1945.23 620.186 1945.07 620.734C1944.9 621.282 1944.81 621.766 1944.81 622.187V636.657C1944.81 637.079 1944.67 637.437 1944.37 637.732C1944.08 638.026 1943.72 638.174 1943.3 638.174H1933.76C1933.33 638.174 1932.98 638.026 1932.68 637.732C1932.39 637.437 1932.24 637.079 1932.24 636.657V622.251C1932.24 621.829 1932.16 621.345 1931.99 620.797C1931.86 620.208 1931.69 619.744 1931.48 619.407C1928.95 615.068 1926.36 610.814 1923.71 606.643C1921.1 602.473 1918.49 598.176 1915.87 593.753C1915.66 593.374 1915.62 592.995 1915.75 592.616C1915.87 592.194 1916.15 591.984 1916.57 591.984H1927.82C1928.24 591.984 1928.66 592.11 1929.08 592.363C1929.54 592.616 1929.88 592.932 1930.09 593.311L1937.86 606.833C1938.07 607.17 1938.33 607.338 1938.62 607.338C1938.92 607.338 1939.17 607.17 1939.38 606.833L1947.09 593.311C1947.3 592.932 1947.61 592.616 1948.04 592.363C1948.5 592.11 1948.94 591.984 1949.36 591.984H1960.74C1961.16 591.984 1961.45 592.131 1961.62 592.426C1961.83 592.721 1961.77 593.163 1961.43 593.753ZM2030.48 593.437V636.657C2030.48 637.079 2030.33 637.437 2030.04 637.732C2029.74 638.026 2029.39 638.174 2028.97 638.174H2019.61C2019.19 638.174 2018.75 638.047 2018.29 637.795C2017.82 637.542 2017.47 637.247 2017.21 636.91L2000.72 613.72C2000.47 613.383 2000.19 613.257 1999.9 613.341C1999.65 613.383 1999.52 613.615 1999.52 614.036V636.657C1999.52 637.079 1999.37 637.437 1999.08 637.732C1998.78 638.026 1998.42 638.174 1998 638.174H1988.59C1988.17 638.174 1987.81 638.026 1987.51 637.732C1987.22 637.437 1987.07 637.079 1987.07 636.657V593.437C1987.07 593.016 1987.22 592.658 1987.51 592.363C1987.81 592.068 1988.17 591.921 1988.59 591.921H1998.07C1998.49 591.921 1998.93 592.047 1999.39 592.3C1999.86 592.51 2000.22 592.784 2000.47 593.121L2016.9 616.311C2017.15 616.648 2017.4 616.795 2017.66 616.753C2017.95 616.711 2018.1 616.479 2018.1 616.058V593.437C2018.1 593.016 2018.24 592.658 2018.54 592.363C2018.83 592.068 2019.19 591.921 2019.61 591.921H2028.97C2029.39 591.921 2029.74 592.068 2030.04 592.363C2030.33 592.658 2030.48 593.016 2030.48 593.437ZM2036.45 615.047C2036.45 611.761 2037.08 608.665 2038.35 605.759C2039.61 602.852 2041.32 600.325 2043.46 598.176C2045.61 595.986 2048.14 594.259 2051.05 592.995C2053.95 591.731 2057.05 591.099 2060.34 591.099C2063.62 591.099 2066.72 591.731 2069.62 592.995C2072.53 594.259 2075.06 595.986 2077.21 598.176C2079.4 600.325 2081.12 602.852 2082.39 605.759C2083.65 608.665 2084.28 611.761 2084.28 615.047C2084.28 618.333 2083.65 621.429 2082.39 624.336C2081.12 627.242 2079.4 629.791 2077.21 631.981C2075.06 634.13 2072.53 635.836 2069.62 637.1C2066.72 638.363 2063.62 638.995 2060.34 638.995C2057.05 638.995 2053.95 638.363 2051.05 637.1C2048.14 635.836 2045.61 634.13 2043.46 631.981C2041.32 629.791 2039.61 627.242 2038.35 624.336C2037.08 621.429 2036.45 618.333 2036.45 615.047ZM2048.96 615.047C2048.96 616.648 2049.26 618.164 2049.85 619.597C2050.44 621.029 2051.24 622.293 2052.25 623.388C2053.3 624.483 2054.52 625.368 2055.91 626.042C2057.3 626.674 2058.78 626.99 2060.34 626.99C2061.89 626.99 2063.37 626.674 2064.76 626.042C2066.15 625.368 2067.37 624.483 2068.42 623.388C2069.48 622.293 2070.3 621.029 2070.89 619.597C2071.48 618.164 2071.77 616.648 2071.77 615.047C2071.77 613.489 2071.48 611.993 2070.89 610.561C2070.3 609.087 2069.48 607.823 2068.42 606.77C2067.37 605.674 2066.15 604.811 2064.76 604.179C2063.37 603.505 2061.89 603.168 2060.34 603.168C2058.78 603.168 2057.3 603.505 2055.91 604.179C2054.52 604.811 2053.3 605.674 2052.25 606.77C2051.24 607.823 2050.44 609.087 2049.85 610.561C2049.26 611.993 2048.96 613.489 2048.96 615.047ZM2096.04 622.314C2098.32 623.788 2100.57 624.947 2102.81 625.789C2105.04 626.632 2107.12 627.053 2109.06 627.053C2110.91 627.053 2112.33 626.8 2113.29 626.295C2114.26 625.747 2114.75 624.947 2114.75 623.893C2114.75 623.346 2114.54 622.925 2114.12 622.63C2113.69 622.293 2113.13 622.019 2112.41 621.808C2111.74 621.598 2110.94 621.429 2110.01 621.303C2109.08 621.176 2108.13 621.008 2107.17 620.797C2106.24 620.629 2105.14 620.439 2103.88 620.229C2102.66 619.976 2101.39 619.639 2100.09 619.218C2098.78 618.754 2097.48 618.186 2096.17 617.512C2094.91 616.838 2093.77 615.974 2092.76 614.921C2091.75 613.868 2090.93 612.625 2090.29 611.193C2089.7 609.718 2089.41 607.991 2089.41 606.011C2089.41 603.105 2089.98 600.704 2091.12 598.808C2092.25 596.912 2093.69 595.417 2095.41 594.322C2097.18 593.184 2099.14 592.405 2101.29 591.984C2103.44 591.52 2105.52 591.289 2107.54 591.289C2111.08 591.289 2114.24 591.815 2117.02 592.868C2119.84 593.879 2122.54 595.375 2125.11 597.355C2125.45 597.65 2125.64 598.008 2125.68 598.429C2125.72 598.85 2125.62 599.229 2125.36 599.566L2120.43 606.58C2120.18 606.917 2119.84 607.128 2119.42 607.212C2119 607.296 2118.62 607.212 2118.29 606.959C2116.14 605.611 2114.14 604.663 2112.28 604.116C2110.43 603.526 2108.72 603.231 2107.17 603.231C2106.7 603.231 2106.15 603.252 2105.52 603.294C2104.93 603.294 2104.36 603.379 2103.82 603.547C2103.27 603.673 2102.81 603.905 2102.43 604.242C2102.09 604.579 2101.92 605.043 2101.92 605.632C2101.92 606.222 2102.36 606.749 2103.25 607.212C2104.13 607.675 2105.14 608.076 2106.28 608.413C2107.42 608.75 2108.51 609.023 2109.57 609.234C2110.62 609.402 2111.29 609.508 2111.59 609.55C2113.1 609.845 2114.77 610.287 2116.58 610.877C2118.39 611.424 2120.08 612.267 2121.64 613.404C2123.24 614.5 2124.56 615.953 2125.62 617.764C2126.71 619.534 2127.26 621.766 2127.26 624.462C2127.26 626.99 2126.82 629.18 2125.93 631.034C2125.05 632.845 2123.8 634.34 2122.2 635.52C2120.65 636.699 2118.75 637.584 2116.52 638.174C2114.33 638.721 2111.88 638.995 2109.19 638.995C2107 638.995 2104.95 638.806 2103.06 638.427C2101.16 638.09 2099.39 637.605 2097.75 636.973C2096.11 636.341 2094.57 635.604 2093.14 634.762C2091.75 633.877 2090.46 632.95 2089.28 631.981C2088.95 631.729 2088.76 631.392 2088.71 630.97C2088.67 630.507 2088.78 630.107 2089.03 629.77L2093.9 622.756C2094.15 622.419 2094.49 622.208 2094.91 622.124C2095.33 622.04 2095.71 622.103 2096.04 622.314ZM2162.78 603.547H2153.93C2153.51 603.547 2153.15 603.695 2152.86 603.989C2152.57 604.284 2152.42 604.642 2152.42 605.064V636.657C2152.42 637.079 2152.27 637.437 2151.98 637.732C2151.72 638.026 2151.36 638.174 2150.9 638.174H2141.42C2141 638.174 2140.64 638.026 2140.35 637.732C2140.05 637.437 2139.91 637.079 2139.91 636.657V605.064C2139.91 604.642 2139.76 604.284 2139.46 603.989C2139.21 603.695 2138.85 603.547 2138.39 603.547H2129.42C2129 603.547 2128.64 603.4 2128.34 603.105C2128.05 602.81 2127.9 602.452 2127.9 602.031V593.437C2127.9 593.016 2128.05 592.658 2128.34 592.363C2128.64 592.068 2129 591.921 2129.42 591.921H2162.78C2163.24 591.921 2163.6 592.068 2163.85 592.363C2164.15 592.658 2164.3 593.016 2164.3 593.437V602.031C2164.3 602.452 2164.15 602.81 2163.85 603.105C2163.6 603.4 2163.24 603.547 2162.78 603.547ZM2180.16 638.174H2170.75C2170.33 638.174 2169.97 638.026 2169.67 637.732C2169.38 637.437 2169.23 637.079 2169.23 636.657V593.437C2169.23 593.016 2169.38 592.658 2169.67 592.363C2169.97 592.068 2170.33 591.921 2170.75 591.921H2190.4C2192.84 591.921 2195.09 592.342 2197.16 593.184C2199.22 593.985 2200.97 595.122 2202.4 596.596C2203.88 598.071 2205.02 599.819 2205.82 601.841C2206.66 603.863 2207.08 606.096 2207.08 608.539C2207.08 609.887 2206.91 611.235 2206.57 612.583C2206.28 613.889 2205.84 615.131 2205.25 616.311C2204.66 617.49 2203.96 618.565 2203.16 619.534C2202.36 620.46 2201.46 621.24 2200.44 621.871C2200.11 622.124 2199.88 622.44 2199.75 622.819C2199.67 623.156 2199.75 623.493 2200 623.83C2201.6 625.937 2203.29 628.106 2205.06 630.339C2206.83 632.571 2208.41 634.614 2209.8 636.468C2210.05 636.805 2210.11 637.184 2209.99 637.605C2209.86 637.984 2209.59 638.174 2209.16 638.174H2197.41C2196.99 638.174 2196.53 638.069 2196.02 637.858C2195.56 637.605 2195.2 637.31 2194.95 636.973C2193.6 635.204 2192.25 633.414 2190.9 631.602C2189.6 629.791 2188.29 627.959 2186.99 626.105C2186.73 625.768 2186.37 625.494 2185.91 625.284C2185.45 625.031 2185.01 624.904 2184.58 624.904H2183.19C2182.77 624.904 2182.42 625.052 2182.12 625.347C2181.83 625.642 2181.68 626 2181.68 626.421V636.657C2181.68 637.079 2181.53 637.437 2181.24 637.732C2180.94 638.026 2180.58 638.174 2180.16 638.174ZM2183.19 613.278H2189.89C2190.4 613.278 2190.92 613.194 2191.47 613.025C2192.02 612.815 2192.53 612.52 2192.99 612.141C2193.45 611.719 2193.83 611.214 2194.13 610.624C2194.42 610.034 2194.57 609.339 2194.57 608.539C2194.57 608.118 2194.48 607.633 2194.32 607.086C2194.19 606.496 2193.94 605.948 2193.56 605.443C2193.22 604.895 2192.74 604.453 2192.1 604.116C2191.51 603.737 2190.78 603.547 2189.89 603.547H2183.19C2182.77 603.547 2182.42 603.695 2182.12 603.989C2181.83 604.284 2181.68 604.642 2181.68 605.064V611.761C2181.68 612.183 2181.83 612.541 2182.12 612.836C2182.42 613.131 2182.77 613.278 2183.19 613.278Z" fill="#8E30EB"/>
<path d="M1140.8 513.3C1144.6 513.3 1146.5 515.2 1146.5 518.9V533.4C1146.5 537.1 1144.6 539 1140.8 539H1003.8C1000.1 539 998.2 537.1 998.2 533.4V518.9C998.2 515.2 1000.1 513.3 1003.8 513.3H1140.8Z" fill="#FF9900"/>
</g>
<defs>
<clipPath id="clip0_1_67">
<rect width="3000" height="1000" fill="white"/>
</clipPath>
</defs>
</svg>
